
        <svg xmlns="http://www.w3.org/2000/svg" xmlns:xlink="http://www.w3.org/1999/xlink" version="1.1" width="3131.868131868132" height="1021.978021978022" viewBox="0 0 3131.868131868132 1021.978021978022">
			
			<g transform="scale(6.593406593406593) translate(10, 10)">
				<defs id="SvgjsDefs9229"><linearGradient id="SvgjsLinearGradient9238"><stop id="SvgjsStop9239" stop-color="#ef4136" offset="0"/><stop id="SvgjsStop9240" stop-color="#fbb040" offset="1"/></linearGradient><linearGradient id="SvgjsLinearGradient9241"><stop id="SvgjsStop9242" stop-color="#ef4136" offset="0"/><stop id="SvgjsStop9243" stop-color="#fbb040" offset="1"/></linearGradient><linearGradient id="SvgjsLinearGradient9244"><stop id="SvgjsStop9245" stop-color="#ef4136" offset="0"/><stop id="SvgjsStop9246" stop-color="#fbb040" offset="1"/></linearGradient></defs><g id="SvgjsG9230" featureKey="rootContainer" transform="matrix(1,0,0,1,0,0)" fill="#000"><rect y="0" height="1" width="1" opacity="0"/><rect y="130" width="455" height="5"/></g><g id="SvgjsG9231" featureKey="symbolFeature-0" transform="matrix(2.0833508837376975,0,0,2.0833508837376975,-3.125450018859069,14.88012753276177)" fill="#000"><g xmlns="http://www.w3.org/2000/svg"><path d="M41.5308685,3.4369967c-2.135376-1.2904053-8.9534302-2.4123535-11.9746094-1.7363282   C21.797226,3.4359591,16.4843597,10.113327,16.983017,18.2280121c-0.2102661,0.2331543-0.1640625,0.5579224,0.0652466,0.729187   c0.0631104,0.6143799,0.151123,1.206604,0.2574463,1.7817383c-2.2579346,0.0368042-4.2549438,0.0946655-5.6496582,0.1803589   c-0.5919189-4.057251-1.008728-4.2041626-2.3087769-4.3182373c-2.4423828-0.2143555-4.9238281-0.2714844-7.3671875-0.1689453   C1.70372,16.4433441,1.4897918,16.6767426,1.500595,16.9526215c0.0117188,0.2753906,0.2470703,0.4868164,0.5205079,0.4785156   c2.4042969-0.1005859,4.8398438-0.0444336,7.2382813,0.1660156c1.3423462,0.118042,1.0938721,0.8994141,3.5908203,21.7856445   c-0.7490234,0.6264648-1.3378906,1.5180664-1.8222656,2.324707c-1.2282104,2.0488892-0.3912964,4.4794312,3.0384521,4.5337524   c0.1073608,2.0616455,3.1220093,4.385437,5.3931885,2.5858765c0.7015991-0.5543213,1.1367798-1.4369507,1.2230835-2.3640137   c1.5336914,0.0586548,6.8843384,0.0559082,12.0733032-0.1484985c0.1021118,1.2312622,1.4509888,2.5570068,2.3588257,2.9465942   c2.6477051,1.1341553,5.4733276-1.9283447,3.7598267-5.0629883c-1.4280396-2.595459-5.2943726-2.161438-6.0488281,1.1054688   c-0.0006104,0.0027466-0.0003052,0.0049438-0.0009155,0.0076904c-5.3126831,0.2122192-10.8354492,0.2070313-12.1773071,0.1499023   c-0.0809937-0.4290771-0.2289429-0.8572388-0.4506836-1.2625732c-0.3378906-0.6166992-0.7900391-1.0932617-1.3085938-1.3779297   c-1.3168335-0.72052-4.041748-0.319519-4.7172241,2.4194946c-0.9932861-0.0105591-1.9000244-0.1640625-2.3687134-0.8091431   c-0.4667969-0.6435547-0.2841797-1.5966797,0.0830078-2.2094727c1.3476563-2.2456665,1.8052979-2.0324097,1.9573975-2.4476929   c8.5532837,0.2359619,13.4613647,0.0036011,18.2213135-0.2949829c7.09198-0.4464722,6.9498291-0.1571655,7.1523438-0.6313477   c0.9171143-2.1513672,1.4165649-4.4069824,1.7872925-6.6608887c2.7509766-1.4415894,5.0709229-3.6587524,6.461731-6.6022949   c0.9794922-2.0727539,1.4228516-4.3359375,1.7558594-6.4731445c0.4873047-3.1240234,0.4492188-4.8720703-1.0498047-7.6132813   C47.217392,9.7534027,43.5347748,4.6469574,41.5308685,3.4369967z M34.4556732,44.210434   c0.5859985-0.6366577,1.8654785-0.9313354,2.6289063-0.5126953c0.7668457,0.4208984,1.2939453,1.5111694,1.3125,2.4047852   c0.0335693,1.730896-1.5866089,2.7970581-2.8876953,2.2397461c-0.6912842-0.2963867-1.557312-1.3250732-1.7128906-1.7861328   C33.7046967,46.2841644,33.8332367,44.8873749,34.4556732,44.210434z M15.1226654,45.5283051   c0.4715576-2.0428467,2.4318237-2.2984619,3.2851563-1.8305664c0.3505859,0.1923828,0.6660156,0.5317383,0.9121094,0.980957   c0.2519531,0.4609375,0.3896484,0.9536133,0.3994141,1.4238281c0.03302,1.7057495-1.5618896,2.8081055-2.8867188,2.2397461   c-0.7018433-0.300415-1.5626221-1.3377686-1.7138672-1.7861328C15.0259857,46.281723,15.0269623,45.9452972,15.1226654,45.5283051z    M44.1281586,7.474472c-1.2052002,0.3901978-2.4662476,0.7856445-3.7644653,1.1326904   C39.3197479,6.3333588,37.5169525,4.1585541,35.78685,2.836777C40.825119,3.6167452,41.5221405,4.243515,44.1281586,7.474472z    M33.9197845,33.0832367c-0.5371094,0.0197754-1.0633545,0.0532227-2.3100586-0.0669556   c-0.3233643-0.3274536-2.8520508-1.5484009-4.7883911-7.0258179c4.3829956-1.0013428,7.0530396-0.7839355,12.0389404-0.2461548   C36.8299408,31.6802216,34.1692963,32.7095795,33.9197845,33.0832367z M35.3258514,33.9697723   c-0.0140991,0.1443481-0.0283203,0.293396-0.0420532,0.4263306c-1.3043823-0.0059814-2.6105347-0.007019-3.9212646-0.0040283   c0.008728-0.1176147,0.0130615-0.2355957,0.0181274-0.3534546C32.6946869,34.1649628,34.0201874,34.1412811,35.3258514,33.9697723z    M21.2440033,27.5984344c1.4588623-0.4737549,2.9984131-0.9644165,4.5888672-1.3713989   c0.8331909,2.4134521,2.0596924,4.7893066,3.8517456,6.4918823C26.1877899,31.969162,23.1542206,30.1484833,21.2440033,27.5984344z    M22.3566742,30.1728363c-0.0153198,0.0004883-0.0304565,0.0010376-0.0457764,0.0015259   c0.0006104-0.0150757,0.0009155-0.0270386,0.0015259-0.0419312C22.3271942,30.1457977,22.3418427,30.1595306,22.3566742,30.1728363   z M20.6622162,26.7357025c-1.199707-1.9564819-2.3132324-4.9781494-2.6137695-7.8395996   c1.9945068-0.5397339,4.0360718-0.8903198,6.0790405-1.0891724c0.1234741,1.5133667,0.4667969,4.4321289,1.3915405,7.4676514   C23.8274384,25.7103119,22.1974335,26.2363739,20.6622162,26.7357025z M31.0259857,24.3398285   c-1.5319824,0.09552-3.0457153,0.3568726-4.5223999,0.6983643c-0.7427979-2.3878174-1.18573-4.9512939-1.376709-7.3061523   c4.9123535-0.375,10.3995361-0.0579834,15.3201904,0.2577515c-0.1939087,2.196167-0.6064453,4.5570068-1.2744141,6.7818604   C36.5356293,24.4758148,33.5085297,24.1868744,31.0259857,24.3398285z M25.0585175,16.7351532   c-0.1696777-3.0335693,0.0776367-5.0906372,0.7113037-6.8198242c6.2012939,1.1660767,10.3970947,0.7619019,14.0147705-0.1275024   c0.8649902,2.3757935,0.8762207,5.0075073,0.7380981,7.2047119C35.5115204,16.6707611,30.0124359,16.3582001,25.0585175,16.7351532   z M32.0944061,2.5013888c0.4613647,0.0067139,0.9474487,0.0305786,1.4492798,0.0706177   c0.0457153,0.0558472,0.1010742,0.1046753,0.1707764,0.1374512c2.2954102,1.0817871,4.5675659,3.8604734,5.6692505,6.1454468   c-3.0344238,0.7317505-6.7700806,1.2848511-13.2171021,0.1139526c0.4193115-0.8790894,0.9468384-1.701355,1.5830078-2.5675049   C30.3289032,2.8895724,31.818222,2.9836276,32.0944061,2.5013888z M30.0101776,2.6334078   c-1.935791,1.3325195-3.9785156,4.1991577-4.8508911,6.135498c-1.355957-0.2918701-2.6342163-0.6712036-3.7102051-1.1480103   C23.7593842,4.9219208,27.0439301,3.1633151,30.0101776,2.6334078z M20.8079681,8.427536   c1.1609497,0.5448608,2.5325928,0.9658203,3.9750366,1.2855835c-0.6379395,1.8189697-0.8945923,3.991333-0.7218018,7.0964966   c-2.039978,0.1970215-4.0829468,0.5452881-6.0878296,1.0748291C17.8219452,14.460434,18.7090302,11.2666473,20.8079681,8.427536z    M17.5269623,21.7359467c0.3294678,1.3904419,0.784729,2.6582031,1.348999,3.8052979   c-0.6217041-0.0430908-1.2591553-0.0944214-1.9800415-0.1531982c-0.0973511-1.2151489-0.1989746-2.428894-0.3091431-3.6379395   C16.8876801,21.7443695,17.2114105,21.7404633,17.5269623,21.7359467z M11.7941132,21.9130096   c1.1160889-0.0669556,2.5997925-0.1167603,4.2915649-0.1525269c0.1087036,1.1921387,0.2085571,2.3890991,0.3048096,3.5872803   c-1.3787842-0.1060791-2.7825928-0.1766968-4.1815186-0.0890503C12.0547333,23.9531708,11.9192963,22.84935,11.7941132,21.9130096z    M12.2675629,25.7569427c1.3845215-0.0849609,2.7867432-0.0111084,4.1658325,0.0961914   c0.1161499,1.4732056,0.2231445,2.9493408,0.3200684,4.4262695c-1.324707,0.0036011-2.649353-0.0112305-3.9699707-0.0626831   C12.627243,28.8585663,12.4280853,27.1251068,12.2675629,25.7569427z M13.7847137,38.7732391   c-0.3711548-3.1124878-0.6809082-5.7774048-0.9436035-8.0568848c1.7941284,0.0671387,2.7221069,0.0709839,3.942749,0.0671387   c0.0817261,1.2736816,0.1583252,2.5474854,0.2255249,3.8197632c-3.5924683,0.0966187-3.5944824,0.010498-3.5849609,0.3483887   c0.013855,0.3837891,0.2009888,0.2428589,3.6090698,0.1514282c0.0639038,1.2442017,0.1219482,2.4869995,0.1717529,3.7260742   C16.0635834,38.8142548,14.9207001,38.8054047,13.7847137,38.7732391z M21.4261932,38.845871   c-1.2415771,0.007019-2.4771118,0.0048218-3.7196655-0.0085449c-0.0498657-1.2462769-0.1083984-2.4963379-0.1726074-3.7477417   c1.3466797-0.0349731,2.6918335-0.0685425,4.0380249-0.0942993C21.3936005,39.0132294,21.3284149,38.6773529,21.4261932,38.845871z    M21.5979462,34.4945526c-1.362915,0.026001-2.7246094,0.0597534-4.0879517,0.0952148   c-0.0670166-1.2701416-0.1437378-2.5419312-0.2252197-3.8135376c1.5093994-0.010376,3.0098267-0.0415649,4.5026245-0.0876465   C21.7406464,31.733139,21.6771088,32.9738617,21.5979462,34.4945526z M21.8096161,30.1911469   c-1.5087891,0.046875-3.0299072,0.0758667-4.5545654,0.0861206c-0.0958862-1.4625854-0.2014771-2.9246826-0.3161621-4.3838501   c0.8171387,0.0669556,1.517395,0.1229858,2.2026978,0.1673584c0.7488403,1.3939209,1.6536255,2.6071167,2.6871948,3.6297607   C21.8227997,29.8539886,21.8170013,30.0153656,21.8096161,30.1911469z M25.944931,38.7849579   c-1.921936,0.055542-1.4208984,0.0368042-4.1119995,0.0568237c0.0973511-0.1724243-0.0006714,0.296875,0.2398071-3.8543701   c1.3085938-0.0239258,2.6168823-0.0465088,3.9231567-0.0616455L25.944931,38.7849579z M26.0024872,34.4253998   c-1.2998047,0.0150146-2.6015625,0.0375977-3.9036865,0.0613403c0.0794678-1.5234985,0.1431274-2.767395,0.1898804-3.81427   c0.2070923-0.0066528,0.4135132-0.0132446,0.6203003-0.0198975c0.9677124,0.7852783,2.0142212,1.437439,3.1175537,1.9522705   L26.0024872,34.4253998z M30.4471893,38.573288c-1.3181763,0.0797729-2.6519775,0.145752-4.0018921,0.1919556l0.0507813-3.84729   c1.4450684-0.0155029,2.883606-0.0186768,4.3235474-0.0233765C30.7212372,36.1238251,30.5969696,37.3504486,30.4471893,38.573288z    M30.8619843,34.3942719c-1.4517212,0.0045776-2.9022217,0.0077515-4.359314,0.0233154l0.0211792-1.6019287   c1.3946533,0.5927124,2.8627319,0.9871216,4.3588257,1.1751709C30.8769379,34.125351,30.871933,34.2599945,30.8619843,34.3942719z    M30.9526825,38.5432587c0.1473389-1.2137451,0.2724609-2.4307861,0.3695068-3.6508789   c1.3059692-0.0031128,2.6077271-0.0023804,3.9075317,0.003418c-0.178894,1.6002808-0.3533325,2.5004883-0.6289673,3.4299927   C33.7254486,38.3751678,31.0549164,38.536911,30.9526825,38.5432587z M38.4195404,38.1591644   c-1.1048584,0.0279541-2.2023926,0.0767822-3.288208,0.1349487c0.2583618-0.9081421,0.4276733-1.8248291,0.6013184-3.3947754   c1.2382813,0.0066528,2.4780884,0.0114746,3.7091064,0.0263062C39.173996,36.0243988,38.8466644,37.108078,38.4195404,38.1591644z    M39.5580902,34.4264374c-1.2515259-0.0153198-2.5128174-0.0198975-3.7720947-0.0267944   c0.0159302-0.1553345,0.0323486-0.3283081,0.0487061-0.4970703c1.4016113-0.2260132,2.7675781-0.6291504,4.0615234-1.1876221   C39.7936859,33.2871552,39.6864471,33.8589325,39.5580902,34.4264374z M35.6999969,32.9274139   c2.0009766-1.7928467,3.3154297-4.4240723,4.1817627-7.0523682c1.7710571,0.2472534,3.4331665,0.6934814,5.2886963,1.5911865   C42.9644623,30.4381561,39.6299286,32.3660126,35.6999969,32.9274139z M46.561142,25.1576996   c-0.243103,0.5146484-0.520752,1.0022583-0.8181152,1.4729004c-1.9293823-0.9530029-3.7068481-1.4508057-5.5605469-1.7227783   c0.7973022-2.7463379,1.1331787-5.3571167,1.2669067-6.8616333c2.2868042,0.1557007,4.5679321,0.34198,6.833252,0.5578003   C47.9582977,20.818161,47.5198822,23.1273041,46.561142,25.1576996z M48.4095306,17.6114349   c-2.2833252-0.2179565-4.5829468-0.4056396-6.8880005-0.5627441c0.1420898-2.2721558,0.1226807-4.9950562-0.7704468-7.5103149   c1.3991089-0.37854,2.7524414-0.809021,4.0372925-1.2265625C47.5041962,11.8454437,48.7976532,13.9787445,48.4095306,17.6114349z"/></g></g><g id="SvgjsG9232" featureKey="nameFeature-0" transform="matrix(1.249693945498272,0,0,1.249693945498272,119.95126248912123,23.94043688374353)" fill="#000"><path d="M17.715 12.050999999999998 l-17.676 27.949 l5.0195 0 l4.1211 -6.5234 l9.4922 0 l0 6.5234 l4.2578 0 l0 -27.949 l-5.2148 0 z M18.672 18.477 l0 10.762 l-6.8164 0 z M27.6953625 12.050999999999998 l0 27.949 l14.258 0 l0 -4.2383 l-10.02 0 l0 -23.711 l-4.2383 0 z M45.3516125 12.050999999999998 l0 27.949 l14.258 0 l0 -4.2383 l-10.02 0 l0 -23.711 l-4.2383 0 z M87.5000625 12.050999999999998 l-9.9609 22.813 l-9.8438 -22.813 l-4.4336 0 l0 27.949 l4.2383 0 l0 -17.637 l7.6367 17.637 l4.7852 0 l7.7734 -17.754 l0 17.754 l4.2383 0 l0 -27.949 l-4.4336 0 z M112.87140625 12.050999999999998 l-17.676 27.949 l5.0195 0 l4.1211 -6.5234 l9.4922 0 l0 6.5234 l4.2578 0 l0 -27.949 l-5.2148 0 z M113.82840625 18.477 l0 10.762 l-6.8164 0 z M126.8750125 23.984 l0 -7.6953 l6.0742 0 c1.0547 0 1.9596 0.3776 2.7148 1.1328 c0.74219 0.75521 1.1133 1.6667 1.1133 2.7344 c0 1.0547 -0.37109 1.9531 -1.1133 2.6953 c-0.75521 0.75521 -1.6602 1.1328 -2.7148 1.1328 l-6.0742 0 z M136.1128125 27.578 c1.4583 -0.625 2.6367 -1.6015 3.5352 -2.9297 c0.92447 -1.3542 1.3867 -2.8516 1.3867 -4.4922 c0 -2.2396 -0.79428 -4.1471 -2.3828 -5.7227 c-1.5755 -1.5885 -3.4766 -2.3828 -5.7031 -2.3828 l-10.313 0 l0 27.949 l4.2383 0 l0 -11.777 l4.7852 0 l6.1133 11.777 l4.7852 0 z M143.9843875 12.050999999999998 l0 4.2383 l5.918 0 l0 23.711 l4.2578 0 l0 -23.711 l5.918 0 l0 -4.2383 l-16.094 0 z"/></g><g id="SvgjsG9233" featureKey="sloganFeature-0" transform="matrix(1,0,0,1,119.98049998283386,78.12110137939453)" fill="#000"><path d="M8.3984 6.025 l-2.959 5.0195 l-2.959 -5.0195 l-2.4609 0 l4.3555 7.4023 l0 6.5723 l2.1289 0 l0 -6.5723 l4.3555 -7.4023 l-2.4609 0 z M13.437462499999999 9.473 c-0.97656 0.97656 -1.4648 2.155 -1.4648 3.5352 s0.48828 2.5586 1.4648 3.5352 s2.155 1.4648 3.5352 1.4648 s2.5586 -0.48828 3.5352 -1.4648 s1.4648 -2.155 1.4648 -3.5352 s-0.48828 -2.5586 -1.4648 -3.5352 s-2.155 -1.4648 -3.5352 -1.4648 s-2.5586 0.48828 -3.5352 1.4648 z M11.9335625 18.0469 c-1.3933 -1.3933 -2.0898 -3.0729 -2.0898 -5.0391 s0.69661 -3.6458 2.0898 -5.0391 s3.0729 -2.0898 5.0391 -2.0898 s3.6458 0.69661 5.0391 2.0898 s2.0898 3.0729 2.0898 5.0391 s-0.69661 3.6458 -2.0898 5.0391 s-3.0729 2.0898 -5.0391 2.0898 s-3.6458 -0.69661 -5.0391 -2.0898 z M27.3047125 18.6719 c-0.97005 -0.97005 -1.4551 -2.1419 -1.4551 -3.5156 l0 -9.1406 l2.1289 0 l0 9.1406 c0 0.78776 0.27669 1.4583 0.83008 2.0117 c0.55989 0.55989 1.2305 0.83984 2.0117 0.83984 c0.78776 0 1.4583 -0.27995 2.0117 -0.83984 c0.55989 -0.55339 0.83984 -1.2239 0.83984 -2.0117 l0 -9.1406 l2.1289 0 l0 9.1406 c0 1.3737 -0.48828 2.5456 -1.4648 3.5156 c-0.97005 0.97005 -2.1419 1.4551 -3.5156 1.4551 c-1.3672 0 -2.5391 -0.48503 -3.5156 -1.4551 z M40.205084375 11.9922 l0 -3.8477 l3.0371 0 c0.52734 0 0.97979 0.1888 1.3574 0.56641 c0.37109 0.37761 0.55664 0.83334 0.55664 1.3672 c0 0.52734 -0.18555 0.97656 -0.55664 1.3477 c-0.37761 0.37761 -0.83008 0.56641 -1.3574 0.56641 l-3.0371 0 z M44.824184375 13.789100000000001 c0.72917 -0.3125 1.3184 -0.80077 1.7676 -1.4648 c0.46224 -0.67708 0.69336 -1.4258 0.69336 -2.2461 c0 -1.1198 -0.39714 -2.0735 -1.1914 -2.8613 c-0.78776 -0.79427 -1.7383 -1.1914 -2.8516 -1.1914 l-5.1563 0 l0 13.975 l2.1191 0 l0 -5.8887 l2.3926 0 l3.0566 5.8887 l2.3926 0 z M57.060509375 9.473 c-0.97656 0.97656 -1.4648 2.155 -1.4648 3.5352 s0.48828 2.5586 1.4648 3.5352 s2.155 1.4648 3.5352 1.4648 s2.5586 -0.48828 3.5352 -1.4648 s1.4648 -2.155 1.4648 -3.5352 s-0.48828 -2.5586 -1.4648 -3.5352 s-2.155 -1.4648 -3.5352 -1.4648 s-2.5586 0.48828 -3.5352 1.4648 z M55.556609375 18.0469 c-1.3933 -1.3933 -2.0898 -3.0729 -2.0898 -5.0391 s0.69661 -3.6458 2.0898 -5.0391 s3.0729 -2.0898 5.0391 -2.0898 s3.6458 0.69661 5.0391 2.0898 s2.0898 3.0729 2.0898 5.0391 s-0.69661 3.6458 -2.0898 5.0391 s-3.0729 2.0898 -5.0391 2.0898 s-3.6458 -0.69661 -5.0391 -2.0898 z M77.412159375 6.025 l0 9.9902 l-5.9668 -9.9902 l-2.2168 0 l0 13.975 l2.1191 0 l0 -9.9902 l5.9766 9.9902 l2.2168 0 l0 -13.975 l-2.1289 0 z M81.748071875 6.025 l0 13.975 l7.1289 0 l0 -2.1191 l-5.0098 0 l0 -3.8281 l3.8672 0 l0 -2.1191 l-3.8672 0 l0 -3.7891 l5.0098 0 l0 -2.1191 l-7.1289 0 z M89.990236875 13.7402 l6.4551 0 l0 -2.1191 l-6.4551 0 l0 2.1191 z M101.855490625 20.12695 c-0.92448 -0.039063 -1.7773 -0.28646 -2.5586 -0.74219 c-0.88542 -0.51433 -1.4876 -1.2044 -1.8066 -2.0703 l1.9922 -0.73242 c0.16276 0.42969 0.49805 0.778 1.0059 1.0449 c0.44922 0.22786 0.9375 0.35481 1.4648 0.38086 c0.8138 0.032549 1.4876 -0.16602 2.0215 -0.5957 c0.44922 -0.36458 0.68685 -0.78125 0.71289 -1.25 c0.039063 -0.89192 -0.89519 -1.6048 -2.8027 -2.1387 c-2.9883 -0.83984 -4.4368 -2.2624 -4.3457 -4.2676 c0.058594 -1.4063 0.66081 -2.4577 1.8066 -3.1543 c0.87239 -0.53386 1.9206 -0.77148 3.1445 -0.71289 c1.4844 0.065107 2.6758 0.58269 3.5742 1.5527 l-1.5527 1.4453 c-0.50781 -0.54688 -1.2142 -0.83984 -2.1191 -0.87891 c-0.63802 -0.026045 -1.1816 0.055332 -1.6309 0.24413 c-0.70313 0.29948 -1.071 0.83334 -1.1035 1.6016 c-0.039063 0.87891 0.89519 1.5853 2.8027 2.1191 c1.7188 0.48177 2.9362 1.1914 3.6523 2.1289 c0.49479 0.65104 0.72592 1.3704 0.69337 2.1582 c-0.05208 1.1067 -0.55338 2.0442 -1.5039 2.8125 c-0.88542 0.70964 -1.9466 1.0645 -3.1836 1.0645 c-0.091143 0 -0.17903 -0.0032521 -0.26367 -0.0097656 z M108.00780875 6.025 l0 2.1191 l2.959 0 l0 11.855 l2.1289 0 l0 -11.855 l2.959 0 l0 -2.1191 l-8.0469 0 z M119.27730625 9.473 c-0.97656 0.97656 -1.4648 2.155 -1.4648 3.5352 s0.48828 2.5586 1.4648 3.5352 s2.155 1.4648 3.5352 1.4648 s2.5586 -0.48828 3.5352 -1.4648 s1.4648 -2.155 1.4648 -3.5352 s-0.48828 -2.5586 -1.4648 -3.5352 s-2.155 -1.4648 -3.5352 -1.4648 s-2.5586 0.48828 -3.5352 1.4648 z M117.77340625 18.0469 c-1.3933 -1.3933 -2.0898 -3.0729 -2.0898 -5.0391 s0.69661 -3.6458 2.0898 -5.0391 s3.0729 -2.0898 5.0391 -2.0898 s3.6458 0.69661 5.0391 2.0898 s2.0898 3.0729 2.0898 5.0391 s-0.69661 3.6458 -2.0898 5.0391 s-3.0729 2.0898 -5.0391 2.0898 s-3.6458 -0.69661 -5.0391 -2.0898 z M133.73045625 11.9922 l3.0371 0.0000095367 c0.52734 0 0.97979 -0.1888 1.3574 -0.56641 c0.37109 -0.37109 0.55664 -0.82031 0.55664 -1.3477 c0 -0.53386 -0.18555 -0.98955 -0.55664 -1.3672 c-0.37761 -0.37761 -0.83008 -0.56641 -1.3574 -0.56641 l-3.0371 0 l0 3.8477 z M133.73045625 20.0000095367 l-2.1191 -0.0000095367 l0 -13.975 l5.1563 0 c1.1133 0 2.0638 0.39714 2.8516 1.1914 c0.79427 0.78776 1.1914 1.7415 1.1914 2.8613 c0 1.1133 -0.39714 2.0638 -1.1914 2.8516 c-0.78776 0.78776 -1.7383 1.1816 -2.8516 1.1816 l-3.0371 0 l0 5.8887 z M147.58789375 6.025 l0 13.975 l2.5977 0 l6.1914 -10.518 l0 10.518 l2.5977 0 l8.2324 -13.975 l-2.4609 0 l-6.2402 10.596 l0 -10.596 l-2.5586 0 l-6.2402 10.596 l0 -10.596 l-2.1191 0 z M169.931603125 9.473 c-0.97656 0.97656 -1.4648 2.155 -1.4648 3.5352 s0.48828 2.5586 1.4648 3.5352 s2.155 1.4648 3.5352 1.4648 s2.5586 -0.48828 3.5352 -1.4648 s1.4648 -2.155 1.4648 -3.5352 s-0.48828 -2.5586 -1.4648 -3.5352 s-2.155 -1.4648 -3.5352 -1.4648 s-2.5586 0.48828 -3.5352 1.4648 z M168.427703125 18.0469 c-1.3933 -1.3933 -2.0898 -3.0729 -2.0898 -5.0391 s0.69661 -3.6458 2.0898 -5.0391 s3.0729 -2.0898 5.0391 -2.0898 s3.6458 0.69661 5.0391 2.0898 s2.0898 3.0729 2.0898 5.0391 s-0.69661 3.6458 -2.0898 5.0391 s-3.0729 2.0898 -5.0391 2.0898 s-3.6458 -0.69661 -5.0391 -2.0898 z M184.248053125 11.9922 l0 -3.8477 l3.0371 0 c0.52734 0 0.97979 0.1888 1.3574 0.56641 c0.37109 0.37761 0.55664 0.83334 0.55664 1.3672 c0 0.52734 -0.18555 0.97656 -0.55664 1.3477 c-0.37761 0.37761 -0.83008 0.56641 -1.3574 0.56641 l-3.0371 0 z M188.867153125 13.789100000000001 c0.72917 -0.3125 1.3184 -0.80077 1.7676 -1.4648 c0.46224 -0.67708 0.69336 -1.4258 0.69336 -2.2461 c0 -1.1198 -0.39714 -2.0735 -1.1914 -2.8613 c-0.78776 -0.79427 -1.7383 -1.1914 -2.8516 -1.1914 l-5.1563 0 l0 13.975 l2.1191 0 l0 -5.8887 l2.3926 0 l3.0566 5.8887 l2.3926 0 z M193.291040625 6.025 l0 13.975 l7.1289 0 l0 -2.1191 l-5.0098 0 l0 -11.855 l-2.1191 0 z M204.189465625 17.8906 l1.5625 -0.0000095367 c1.3411 0 2.4902 -0.47852 3.4473 -1.4355 c0.95052 -0.95052 1.4258 -2.0964 1.4258 -3.4375 c0 -1.3477 -0.47526 -2.4968 -1.4258 -3.4473 c-0.95703 -0.95703 -2.1062 -1.4355 -3.4473 -1.4355 l-1.5625 0 l0 9.7559 z M202.080065625 19.9999904633 l0 -13.975 l3.6719 0 c1.9271 0 3.5742 0.68359 4.9414 2.0508 c1.3606 1.3672 2.041 3.0144 2.041 4.9414 c0 1.9206 -0.68034 3.5645 -2.041 4.9316 c-1.3672 1.3672 -3.0144 2.0508 -4.9414 2.0508 l-3.6719 0 z M214.609378125 6.025 l0 13.975 l2.5977 0 l6.1914 -10.518 l0 10.518 l2.5977 0 l8.2324 -13.975 l-2.4609 0 l-6.2402 10.596 l0 -10.596 l-2.5586 0 l-6.2402 10.596 l0 -10.596 l-2.1191 0 z M237.54878125 6.045 l-2.1191 0 l0 13.955 l2.1191 0 l0 -13.955 z M241.93360625 17.8906 l1.5625 -0.0000095367 c1.3411 0 2.4902 -0.47852 3.4473 -1.4355 c0.95052 -0.95052 1.4258 -2.0964 1.4258 -3.4375 c0 -1.3477 -0.47526 -2.4968 -1.4258 -3.4473 c-0.95703 -0.95703 -2.1062 -1.4355 -3.4473 -1.4355 l-1.5625 0 l0 9.7559 z M239.82420625 19.9999904633 l0 -13.975 l3.6719 0 c1.9271 0 3.5742 0.68359 4.9414 2.0508 c1.3606 1.3672 2.041 3.0144 2.041 4.9414 c0 1.9206 -0.68034 3.5645 -2.041 4.9316 c-1.3672 1.3672 -3.0144 2.0508 -4.9414 2.0508 l-3.6719 0 z M252.24611875 6.025 l0 13.975 l7.1289 0 l0 -2.1191 l-5.0098 0 l0 -3.8281 l3.8672 0 l0 -2.1191 l-3.8672 0 l0 -3.7891 l5.0098 0 l0 -2.1191 l-7.1289 0 z M278.28128125 6.025 l-4.9805 11.406 l-4.9219 -11.406 l-2.2168 0 l0 13.975 l2.1191 0 l0 -8.8184 l3.8184 8.8184 l2.3926 0 l3.8867 -8.877 l0 8.877 l2.1191 0 l0 -13.975 l-2.2168 0 z M290.546853125 6.025 l-8.8379 13.975 l2.5098 0 l2.0605 -3.2617 l4.7461 0 l0 3.2617 l2.1289 0 l0 -13.975 l-2.6074 0 z M291.025353125 9.238 l0 5.3809 l-3.4082 0 z M297.548834375 11.9922 l0 -3.8477 l3.0371 0 c0.52734 0 0.97979 0.1888 1.3574 0.56641 c0.37109 0.37761 0.55664 0.83334 0.55664 1.3672 c0 0.52734 -0.18555 0.97656 -0.55664 1.3477 c-0.37761 0.37761 -0.83008 0.56641 -1.3574 0.56641 l-3.0371 0 z M302.167934375 13.789100000000001 c0.72917 -0.3125 1.3184 -0.80077 1.7676 -1.4648 c0.46224 -0.67708 0.69336 -1.4258 0.69336 -2.2461 c0 -1.1198 -0.39714 -2.0735 -1.1914 -2.8613 c-0.78776 -0.79427 -1.7383 -1.1914 -2.8516 -1.1914 l-5.1563 0 l0 13.975 l2.1191 0 l0 -5.8887 l2.3926 0 l3.0566 5.8887 l2.3926 0 z M313.691421875 6.025 l-4.8828 6.0645 l0 -6.0645 l-2.1191 0 l0 13.975 l2.1191 0 l0 -4.5215 l0.6543 -0.81055 l4.3848 5.332 l2.7539 0 l-5.7813 -7.0215 l5.5859 -6.9531 l-2.7148 0 z M318.271509375 6.025 l0 13.975 l7.1289 0 l0 -2.1191 l-5.0098 0 l0 -3.8281 l3.8672 0 l0 -2.1191 l-3.8672 0 l0 -3.7891 l5.0098 0 l0 -2.1191 l-7.1289 0 z M326.611324375 6.025 l0 2.1191 l2.959 0 l0 11.855 l2.1289 0 l0 -11.855 l2.959 0 l0 -2.1191 l-8.0469 0 z"/></g>
			</g>
		</svg>
	