
        <svg xmlns="http://www.w3.org/2000/svg" xmlns:xlink="http://www.w3.org/1999/xlink" version="1.1" width="3114.942528735632" 
        height="752.8735632183908" viewBox="0 0 3114.942528735632 752.8735632183908">
			
			<g transform="scale(5.747126436781609) translate(10, 10)">
				<defs id="SvgjsDefs2392"></defs><g id="SvgjsG2393" featureKey="symbolContainer" transform="matrix(1,0,0,1,0,0)" fill="#76b39d">    <path xmlns="http://www.w3.org/2000/svg" fill-rule="nonzero" d="             M0,0             H103             V111             H0,0             z             M4,4             v103             h95             v-103             z     "></path></g><g id="SvgjsG2394" featureKey="monogramFeature-0" transform="matrix(1.9094382862871295,0,0,1.9094382862871295,15.968905219226492,-18.995098540113325)" fill="#76b39d"><path d="M20.22 60.72 c-7.44 0 -14.52 -2.34 -19.68 -6.96 l6.48 -7.74 c4.14 3.3 8.76 5.04 13.62 5.04 c3.12 0 4.8 -1.08 4.8 -2.88 l0 -0.12 c0 -1.74 -1.38 -2.7 -7.08 -4.02 c-8.94 -2.04 -15.84 -4.56 -15.84 -13.2 l0 -0.12 c0 -7.8 6.18 -13.44 16.26 -13.44 c7.14 0 12.72 1.92 17.28 5.58 l-5.82 8.22 c-3.84 -2.7 -8.04 -4.14 -11.76 -4.14 c-2.82 0 -4.2 1.2 -4.2 2.7 l0 0.12 c0 1.92 1.44 2.76 7.26 4.08 c9.66 2.1 15.66 5.22 15.66 13.08 l0 0.12 c0 8.58 -6.78 13.68 -16.98 13.68 z"></path></g><g id="SvgjsG2395" featureKey="nameFeature-0" transform="matrix(1.1067856654908532,0,0,1.1067856654908532,121.0974355930151,12.721100432321263)" fill="#ffffff"><path d="M12.93 40.37109 c-5.8984 0 -10.313 -2.8125 -11.211 -7.7344 l4.8047 -1.1133 c0.50781 3.2031 3.1445 4.9609 6.582 4.9609 c2.7148 0 5.1758 -1.1523 5.1367 -4.082 c-0.039063 -3.0469 -3.418 -3.9258 -7.0703 -4.9609 c-4.2188 -1.2305 -8.5547 -2.6367 -8.5547 -7.7539 c0 -5.1953 4.2578 -7.9297 9.5508 -7.9297 c4.8828 0 9.5117 2.0508 10.586 7.0508 l-4.5117 1.1328 c-0.625 -2.9688 -2.9297 -4.2773 -5.8398 -4.2773 c-2.5977 0 -5.0586 1.1133 -5.0586 3.9453 c0 2.5781 2.9492 3.3789 6.3281 4.3164 c4.3555 1.2109 9.3945 2.6953 9.3945 8.2813 c0 5.7617 -4.8242 8.1641 -10.137 8.1641 z M30.566425 16.602 c-1.5234 0 -2.7734 -1.25 -2.7734 -2.7539 c0 -1.5234 1.25 -2.7539 2.7734 -2.7539 c1.4844 0 2.7539 1.2305 2.7539 2.7539 c0 1.5039 -1.2695 2.7539 -2.7539 2.7539 z M28.261725 40 l0 -19.648 l4.5117 0 l0 19.648 l-4.5117 0 z M45.93753125 40 c-3.5156 0 -5.625 -2.0703 -5.625 -5.7422 l0 -10.391 l-3.9258 0 l0 -3.5156 l1.3477 0 c2.0703 0 3.0273 -0.82031 3.0273 -3.3789 l0 -3.0469 l4.1016 0 l0 6.4258 l4.2773 0 l0 3.5156 l-4.2773 0 l0 9.9219 c0 1.8359 0.99609 2.7344 2.5 2.7344 l1.7773 0 l0 3.4766 l-3.2031 0 z M71.60193749999999 29.844 l-0.058594 1.1328 l-14.941 0 c0.17578 3.9063 2.6953 5.7813 5.6836 5.7813 c2.1875 0 3.9648 -1.1133 4.8633 -3.0859 l4.1016 0.70313 c-1.3672 3.7891 -4.7656 5.9961 -8.9258 5.9961 c-6.0352 0 -10.137 -3.75 -10.137 -10.195 s4.1992 -10.215 10 -10.215 c5.4102 0 9.3945 3.1641 9.4141 9.8828 z M62.2069375 23.301 c-2.7539 0 -4.7852 1.3281 -5.4102 4.3164 l10.293 0 c-0.35156 -2.9102 -2.2852 -4.3164 -4.8828 -4.3164 z M96.52375 40.37109 c-5.8984 0 -10.313 -2.8125 -11.211 -7.7344 l4.8047 -1.1133 c0.50781 3.2031 3.1445 4.9609 6.582 4.9609 c2.7148 0 5.1758 -1.1523 5.1367 -4.082 c-0.039063 -3.0469 -3.418 -3.9258 -7.0703 -4.9609 c-4.2188 -1.2305 -8.5547 -2.6367 -8.5547 -7.7539 c0 -5.1953 4.2578 -7.9297 9.5508 -7.9297 c4.8828 0 9.5117 2.0508 10.586 7.0508 l-4.5117 1.1328 c-0.625 -2.9688 -2.9297 -4.2773 -5.8398 -4.2773 c-2.5977 0 -5.0586 1.1133 -5.0586 3.9453 c0 2.5781 2.9492 3.3789 6.3281 4.3164 c4.3555 1.2109 9.3945 2.6953 9.3945 8.2813 c0 5.7617 -4.8242 8.1641 -10.137 8.1641 z M118.652375 40 c-3.5156 0 -5.625 -2.0703 -5.625 -5.7422 l0 -10.391 l-3.9258 0 l0 -3.5156 l1.3477 0 c2.0703 0 3.0273 -0.82031 3.0273 -3.3789 l0 -3.0469 l4.1016 0 l0 6.4258 l4.2773 0 l0 3.5156 l-4.2773 0 l0 9.9219 c0 1.8359 0.99609 2.7344 2.5 2.7344 l1.7773 0 l0 3.4766 l-3.2031 0 z M135.19578125 40.37109 c-5.9375 0 -10.332 -3.8477 -10.332 -10.215 c0 -6.3086 4.3555 -10.176 10.332 -10.176 c5.9961 0 10.352 3.8672 10.352 10.176 c0 6.3672 -4.375 10.215 -10.352 10.215 z M135.15578125 36.7383 c3.418 0 5.918 -2.5977 5.918 -6.582 c0 -3.9648 -2.5 -6.5625 -5.918 -6.5625 c-3.3594 0 -5.8203 2.5977 -5.8203 6.5625 c0 3.9844 2.4609 6.582 5.8203 6.582 z M154.628875 23.652 c0.95703 -1.9531 3.4766 -3.4961 6.3281 -3.5156 l0 4.1016 c-4.0039 0 -6.1523 1.4648 -6.1523 5.7422 l0 10.02 l-4.5117 0 l0 -19.648 l4.3359 0 l0 3.3008 z M182.42225 29.844 l-0.058594 1.1328 l-14.941 0 c0.17578 3.9063 2.6953 5.7813 5.6836 5.7813 c2.1875 0 3.9648 -1.1133 4.8633 -3.0859 l4.1016 0.70313 c-1.3672 3.7891 -4.7656 5.9961 -8.9258 5.9961 c-6.0352 0 -10.137 -3.75 -10.137 -10.195 s4.1992 -10.215 10 -10.215 c5.4102 0 9.3945 3.1641 9.4141 9.8828 z M173.02725 23.301 c-2.7539 0 -4.7852 1.3281 -5.4102 4.3164 l10.293 0 c-0.35156 -2.9102 -2.2852 -4.3164 -4.8828 -4.3164 z"></path></g><g id="SvgjsG2396" featureKey="sloganFeature-0" transform="matrix(1,0,0,1,122.75999975204468,66.78000020980835)" fill="#c6c6c6"><path d="M1.8 5.6 l4.24 6.94 l4.34 -6.94 l1.58 0 l-5.22 8.12 l0 6.28 l-1.36 0 l0 -6.18 l-5.14 -8.22 l1.56 0 z M13.280000000000001 12.82 c-0.02 -4.2 2.34 -7.6 6.64 -7.6 c4.5 0 6.78 3.38 6.78 7.6 c0 4.14 -2.28 7.56 -6.72 7.56 s-6.7 -3.42 -6.7 -7.56 z M20 19.22 c3.74 0 5.34 -3.04 5.34 -6.4 c0 -4 -2.06 -6.44 -5.38 -6.44 c-3.7 0 -5.32 3.1 -5.32 6.44 c0 3.4 1.6 6.4 5.36 6.4 z M29.42 14.58 l0 -8.98 l1.36 0 l0 8.58 c0 3.56 1.28 5.04 4.22 5.04 c3.1 0 4.22 -1.64 4.22 -5.04 l0 -8.58 l1.36 0 l0 8.98 c0 3.74 -1.86 5.8 -5.58 5.8 c-3.76 0 -5.58 -2.12 -5.58 -5.8 z M45.18 12.3 l4.24 0 c2.02 0 3.58 -0.84 3.58 -2.86 c0 -2.16 -1.68 -2.68 -3.5 -2.68 l-4.32 0 l0 5.54 z M49.46 13.46 l-4.28 0 l0 6.54 l-1.36 0 l0 -14.4 l5.64 0 c3.16 0 4.9 1.12 4.9 3.78 c0 1.82 -0.68 2.78 -2.34 3.52 c1.7 0.58 1.8 2.38 1.84 3.9 c0.06 2.18 0.24 2.78 0.6 3.06 l0 0.14 l-1.5 0 c-0.56 -0.98 -0.42 -3.68 -0.64 -4.78 c-0.32 -1.56 -1.5 -1.76 -2.86 -1.76 z M62.18000000000001 12.82 c-0.02 -4.2 2.34 -7.6 6.64 -7.6 c4.5 0 6.78 3.38 6.78 7.6 c0 4.14 -2.28 7.56 -6.72 7.56 s-6.7 -3.42 -6.7 -7.56 z M68.9 19.22 c3.74 0 5.34 -3.04 5.34 -6.4 c0 -4 -2.06 -6.44 -5.38 -6.44 c-3.7 0 -5.32 3.1 -5.32 6.44 c0 3.4 1.6 6.4 5.36 6.4 z M87.94000000000001 20 l-8.28 -12.56 l-0.04 0 l0 12.56 l-1.36 0 l0 -14.4 l1.54 0 l8.32 12.58 l0.04 0 l0 -12.58 l1.36 0 l0 14.4 l-1.58 0 z M102.52000000000001 20 l-9.78 0 l0 -14.4 l9.58 0 l0 1.16 l-8.22 0 l0 5.2 l7.42 0 l0 1.16 l-7.42 0 l0 5.72 l8.42 0 l0 1.16 z M104.14 14.18 l5.06 0 l0 1.24 l-5.06 0 l0 -1.24 z M110.86 15.7 l1.32 0 c0.22 2.58 1.94 3.52 4.14 3.52 c2.58 0 3.66 -1.4 3.66 -2.98 c0 -4.46 -8.78 -1.5 -8.78 -7.16 c0 -2 1.66 -3.86 4.88 -3.86 c3.24 0 4.86 1.96 4.84 4.3 l-1.3 0 c0 -2.2 -1.7 -3.14 -3.54 -3.14 c-2.76 0 -3.76 1.7 -3.52 3.18 c0.62 3.72 8.78 1.04 8.78 6.62 c0 2.64 -1.94 4.2 -5.26 4.2 c-3 0 -5.22 -1.56 -5.22 -4.68 z M122.53999999999999 6.76 l0 -1.16 l10.48 0 l0 1.16 l-4.56 0 l0 13.24 l-1.36 0 l0 -13.24 l-4.56 0 z M134.4 12.82 c-0.02 -4.2 2.34 -7.6 6.64 -7.6 c4.5 0 6.78 3.38 6.78 7.6 c0 4.14 -2.28 7.56 -6.72 7.56 s-6.7 -3.42 -6.7 -7.56 z M141.12 19.22 c3.74 0 5.34 -3.04 5.34 -6.4 c0 -4 -2.06 -6.44 -5.38 -6.44 c-3.7 0 -5.32 3.1 -5.32 6.44 c0 3.4 1.6 6.4 5.36 6.4 z M151.82 20 l-1.36 0 l0 -14.4 l5.26 0 c3.74 0 4.7 1.86 4.7 4.02 c0 3.22 -2.86 4.02 -5.52 4.02 l-3.08 0 l0 6.36 z M151.82 12.48 l3.12 0 c2.54 0 4.12 -0.52 4.12 -2.96 c0 -1.8 -1.16 -2.76 -3.72 -2.76 l-3.52 0 l0 5.72 z M167.74 12.82 c-0.02 -4.2 2.34 -7.6 6.64 -7.6 c4.5 0 6.78 3.38 6.78 7.6 c0 4.14 -2.28 7.56 -6.72 7.56 s-6.7 -3.42 -6.7 -7.56 z M174.46 19.22 c3.74 0 5.34 -3.04 5.34 -6.4 c0 -4 -2.06 -6.44 -5.38 -6.44 c-3.7 0 -5.32 3.1 -5.32 6.44 c0 3.4 1.6 6.4 5.36 6.4 z M193.5 20 l-8.28 -12.56 l-0.04 0 l0 12.56 l-1.36 0 l0 -14.4 l1.54 0 l8.32 12.58 l0.04 0 l0 -12.58 l1.36 0 l0 14.4 l-1.58 0 z M207.38 20 l-9.08 0 l0 -14.4 l1.36 0 l0 13.24 l7.72 0 l0 1.16 z M211.26000000000002 20 l-1.36 0 l0 -14.4 l1.36 0 l0 14.4 z M224.62 20 l-8.28 -12.56 l-0.04 0 l0 12.56 l-1.36 0 l0 -14.4 l1.54 0 l8.32 12.58 l0.04 0 l0 -12.58 l1.36 0 l0 14.4 l-1.58 0 z M239.20000000000002 20 l-9.78 0 l0 -14.4 l9.58 0 l0 1.16 l-8.22 0 l0 5.2 l7.42 0 l0 1.16 l-7.42 0 l0 5.72 l8.42 0 l0 1.16 z M246.44000000000003 15.7 l1.32 0 c0.22 2.58 1.94 3.52 4.14 3.52 c2.58 0 3.66 -1.4 3.66 -2.98 c0 -4.46 -8.78 -1.5 -8.78 -7.16 c0 -2 1.66 -3.86 4.88 -3.86 c3.24 0 4.86 1.96 4.84 4.3 l-1.3 0 c0 -2.2 -1.7 -3.14 -3.54 -3.14 c-2.76 0 -3.76 1.7 -3.52 3.18 c0.62 3.72 8.78 1.04 8.78 6.62 c0 2.64 -1.94 4.2 -5.26 4.2 c-3 0 -5.22 -1.56 -5.22 -4.68 z M258.12 6.76 l0 -1.16 l10.48 0 l0 1.16 l-4.56 0 l0 13.24 l-1.36 0 l0 -13.24 l-4.56 0 z M269.98 12.82 c-0.02 -4.2 2.34 -7.6 6.64 -7.6 c4.5 0 6.78 3.38 6.78 7.6 c0 4.14 -2.28 7.56 -6.72 7.56 s-6.7 -3.42 -6.7 -7.56 z M276.7 19.22 c3.74 0 5.34 -3.04 5.34 -6.4 c0 -4 -2.06 -6.44 -5.38 -6.44 c-3.7 0 -5.32 3.1 -5.32 6.44 c0 3.4 1.6 6.4 5.36 6.4 z M287.44 12.3 l4.24 0 c2.02 0 3.58 -0.84 3.58 -2.86 c0 -2.16 -1.68 -2.68 -3.5 -2.68 l-4.32 0 l0 5.54 z M291.72 13.46 l-4.28 0 l0 6.54 l-1.36 0 l0 -14.4 l5.64 0 c3.16 0 4.9 1.12 4.9 3.78 c0 1.82 -0.68 2.78 -2.34 3.52 c1.7 0.58 1.8 2.38 1.84 3.9 c0.06 2.18 0.24 2.78 0.6 3.06 l0 0.14 l-1.5 0 c-0.56 -0.98 -0.42 -3.68 -0.64 -4.78 c-0.32 -1.56 -1.5 -1.76 -2.86 -1.76 z M309.21999999999997 20 l-9.78 0 l0 -14.4 l9.58 0 l0 1.16 l-8.22 0 l0 5.2 l7.42 0 l0 1.16 l-7.42 0 l0 5.72 l8.42 0 l0 1.16 z M325.24 5.6 l3.28 12.48 l0.04 0 l3.14 -12.48 l1.4 0 l-3.78 14.4 l-1.5 0 l-3.34 -12.72 l-0.04 0 l-3.34 12.72 l-1.5 0 l-3.72 -14.4 l1.36 0 l3.1 12.48 l0.04 0 l3.34 -12.48 l1.52 0 z M344.78 20 l-9.78 0 l0 -14.4 l9.58 0 l0 1.16 l-8.22 0 l0 5.2 l7.42 0 l0 1.16 l-7.42 0 l0 5.72 l8.42 0 l0 1.16 z M348.58000000000004 13.120000000000001 l0 5.72 l3.46 0 c3 0 4.4 -0.4 4.4 -2.9 c0 -2.38 -1.68 -2.82 -4.24 -2.82 l-3.62 0 z M348.58000000000004 6.76 l0 5.2 l3.44 0 c2.84 0 3.76 -1 3.76 -2.74 c0 -1.8 -1.08 -2.46 -4.06 -2.46 l-3.14 0 z M353.1 20 l-5.88 0 l0 -14.4 l5.2 0 c3.38 0 4.72 1.46 4.72 3.62 c0 2 -1.14 2.9 -2.3 3.1 l0 0.04 c1.98 0.3 2.96 1.68 2.96 3.58 c0 3 -1.96 4.06 -4.7 4.06 z M359.8 15.7 l1.32 0 c0.22 2.58 1.94 3.52 4.14 3.52 c2.58 0 3.66 -1.4 3.66 -2.98 c0 -4.46 -8.78 -1.5 -8.78 -7.16 c0 -2 1.66 -3.86 4.88 -3.86 c3.24 0 4.86 1.96 4.84 4.3 l-1.3 0 c0 -2.2 -1.7 -3.14 -3.54 -3.14 c-2.76 0 -3.76 1.7 -3.52 3.18 c0.62 3.72 8.78 1.04 8.78 6.62 c0 2.64 -1.94 4.2 -5.26 4.2 c-3 0 -5.22 -1.56 -5.22 -4.68 z M374.62 20 l-1.36 0 l0 -14.4 l1.36 0 l0 14.4 z M377.04 6.76 l0 -1.16 l10.48 0 l0 1.16 l-4.56 0 l0 13.24 l-1.36 0 l0 -13.24 l-4.56 0 z M399.24 20 l-9.78 0 l0 -14.4 l9.58 0 l0 1.16 l-8.22 0 l0 5.2 l7.42 0 l0 1.16 l-7.42 0 l0 5.72 l8.42 0 l0 1.16 z"></path></g>
			</g>
		</svg>
	